<svg id="visual" viewBox="0 0 900 600" width="900" height="600" xmlns="http://www.w3.org/2000/svg" xmlns:xlink="http://www.w3.org/1999/xlink" version="1.1"><path d="M0 358L18.8 373.5C37.7 389 75.3 420 112.8 426.5C150.3 433 187.7 415 225.2 419C262.7 423 300.3 449 337.8 461.8C375.3 474.7 412.7 474.3 450.2 457.7C487.7 441 525.3 408 562.8 406.2C600.3 404.3 637.7 433.7 675.2 439.5C712.7 445.3 750.3 427.7 787.8 419C825.3 410.3 862.7 410.7 881.3 410.8L900 411L900 601L881.3 601C862.7 601 825.3 601 787.8 601C750.3 601 712.7 601 675.2 601C637.7 601 600.3 601 562.8 601C525.3 601 487.7 601 450.2 601C412.7 601 375.3 601 337.8 601C300.3 601 262.7 601 225.2 601C187.7 601 150.3 601 112.8 601C75.3 601 37.7 601 18.8 601L0 601Z" fill="#1d3557"></path><path d="M0 404L18.8 413.8C37.7 423.7 75.3 443.3 112.8 453.3C150.3 463.3 187.7 463.7 225.2 452.3C262.7 441 300.3 418 337.8 412.7C375.3 407.3 412.7 419.7 450.2 429.2C487.7 438.7 525.3 445.3 562.8 458C600.3 470.7 637.7 489.3 675.2 490.7C712.7 492 750.3 476 787.8 457.8C825.3 439.7 862.7 419.3 881.3 409.2L900 399L900 601L881.3 601C862.7 601 825.3 601 787.8 601C750.3 601 712.7 601 675.2 601C637.7 601 600.3 601 562.8 601C525.3 601 487.7 601 450.2 601C412.7 601 375.3 601 337.8 601C300.3 601 262.7 601 225.2 601C187.7 601 150.3 601 112.8 601C75.3 601 37.7 601 18.8 601L0 601Z" fill="#264668"></path><path d="M0 467L18.8 473.5C37.7 480 75.3 493 112.8 496.3C150.3 499.7 187.7 493.3 225.2 496.5C262.7 499.7 300.3 512.3 337.8 511C375.3 509.7 412.7 494.3 450.2 491.3C487.7 488.3 525.3 497.7 562.8 493.2C600.3 488.7 637.7 470.3 675.2 472.7C712.7 475 750.3 498 787.8 505.2C825.3 512.3 862.7 503.7 881.3 499.3L900 495L900 601L881.3 601C862.7 601 825.3 601 787.8 601C750.3 601 712.7 601 675.2 601C637.7 601 600.3 601 562.8 601C525.3 601 487.7 601 450.2 601C412.7 601 375.3 601 337.8 601C300.3 601 262.7 601 225.2 601C187.7 601 150.3 601 112.8 601C75.3 601 37.7 601 18.8 601L0 601Z" fill="#30577a"></path><path d="M0 497L18.8 501.7C37.7 506.3 75.3 515.7 112.8 514.7C150.3 513.7 187.7 502.3 225.2 504.7C262.7 507 300.3 523 337.8 532C375.3 541 412.7 543 450.2 543.8C487.7 544.7 525.3 544.3 562.8 540.2C600.3 536 637.7 528 675.2 523C712.7 518 750.3 516 787.8 510.5C825.3 505 862.7 496 881.3 491.5L900 487L900 601L881.3 601C862.7 601 825.3 601 787.8 601C750.3 601 712.7 601 675.2 601C637.7 601 600.3 601 562.8 601C525.3 601 487.7 601 450.2 601C412.7 601 375.3 601 337.8 601C300.3 601 262.7 601 225.2 601C187.7 601 150.3 601 112.8 601C75.3 601 37.7 601 18.8 601L0 601Z" fill="#3a698c"></path><path d="M0 552L18.8 553.7C37.7 555.3 75.3 558.7 112.8 552.5C150.3 546.3 187.7 530.7 225.2 527C262.7 523.3 300.3 531.7 337.8 536.3C375.3 541 412.7 542 450.2 541.3C487.7 540.7 525.3 538.3 562.8 540.7C600.3 543 637.7 550 675.2 551.3C712.7 552.7 750.3 548.3 787.8 544.5C825.3 540.7 862.7 537.3 881.3 535.7L900 534L900 601L881.3 601C862.7 601 825.3 601 787.8 601C750.3 601 712.7 601 675.2 601C637.7 601 600.3 601 562.8 601C525.3 601 487.7 601 450.2 601C412.7 601 375.3 601 337.8 601C300.3 601 262.7 601 225.2 601C187.7 601 150.3 601 112.8 601C75.3 601 37.7 601 18.8 601L0 601Z" fill="#457b9d"></path></svg>