<svg id="visual" viewBox="0 0 900 600" width="900" height="600" xmlns="http://www.w3.org/2000/svg" xmlns:xlink="http://www.w3.org/1999/xlink" version="1.1">
<path d="M0 552L18.8 553.7C37.7 555.3 75.3 558.7 112.8 552.5C150.3 546.3 187.7 530.7 225.2 527C262.7 523.3 300.3 531.7 337.8 536.3C375.3 541 412.7 542 450.2 541.3C487.7 540.7 525.3 538.3 562.8 540.7C600.3 543 637.7 550 675.2 551.3C712.7 552.7 750.3 548.3 787.8 544.5C825.3 540.7 862.7 537.3 881.3 535.7L900 534L900 601L881.3 601C862.7 601 825.3 601 787.8 601C750.3 601 712.7 601 675.2 601C637.7 601 600.3 601 562.8 601C525.3 601 487.7 601 450.2 601C412.7 601 375.3 601 337.8 601C300.3 601 262.7 601 225.2 601C187.7 601 150.3 601 112.8 601C75.3 601 37.7 601 18.8 601L0 601Z" fill="#457b9d"></path>
</svg>