<svg id="visual" viewBox="0 0 900 600" width="900" height="600" xmlns="http://www.w3.org/2000/svg" xmlns:xlink="http://www.w3.org/1999/xlink" version="1.1"><path d="M0 522L21.5 512.7C43 503.3 86 484.7 128.8 466.2C171.7 447.7 214.3 429.3 257.2 434.8C300 440.3 343 469.7 385.8 488.3C428.7 507 471.3 515 514.2 502.2C557 489.3 600 455.7 642.8 432C685.7 408.3 728.3 394.7 771.2 388.3C814 382 857 383 878.5 383.5L900 384L900 601L878.5 601C857 601 814 601 771.2 601C728.3 601 685.7 601 642.8 601C600 601 557 601 514.2 601C471.3 601 428.7 601 385.8 601C343 601 300 601 257.2 601C214.3 601 171.7 601 128.8 601C86 601 43 601 21.5 601L0 601Z" fill="#0066FF" stroke-linecap="round" stroke-linejoin="miter"></path></svg>