<svg id="visual" viewBox="0 0 900 600" width="900" height="600" xmlns="http://www.w3.org/2000/svg" xmlns:xlink="http://www.w3.org/1999/xlink" version="1.1">
<path d="M0 497L18.8 501.7C37.7 506.3 75.3 515.7 112.8 514.7C150.3 513.7 187.7 502.3 225.2 504.7C262.7 507 300.3 523 337.8 532C375.3 541 412.7 543 450.2 543.8C487.7 544.7 525.3 544.3 562.8 540.2C600.3 536 637.7 528 675.2 523C712.7 518 750.3 516 787.8 510.5C825.3 505 862.7 496 881.3 491.5L900 487L900 601L881.3 601C862.7 601 825.3 601 787.8 601C750.3 601 712.7 601 675.2 601C637.7 601 600.3 601 562.8 601C525.3 601 487.7 601 450.2 601C412.7 601 375.3 601 337.8 601C300.3 601 262.7 601 225.2 601C187.7 601 150.3 601 112.8 601C75.3 601 37.7 601 18.8 601L0 601Z" fill="#5992ad"></path>
</svg>