<svg id="visual" viewBox="0 0 900 600" width="900" height="600" xmlns="http://www.w3.org/2000/svg" xmlns:xlink="http://www.w3.org/1999/xlink" version="1.1"><path d="M0 359L21.5 373.7C43 388.3 86 417.7 128.8 421.3C171.7 425 214.3 403 257.2 393.7C300 384.3 343 387.7 385.8 393.2C428.7 398.7 471.3 406.3 514.2 412.7C557 419 600 424 642.8 430.5C685.7 437 728.3 445 771.2 444.5C814 444 857 435 878.5 430.5L900 426L900 601L878.5 601C857 601 814 601 771.2 601C728.3 601 685.7 601 642.8 601C600 601 557 601 514.2 601C471.3 601 428.7 601 385.8 601C343 601 300 601 257.2 601C214.3 601 171.7 601 128.8 601C86 601 43 601 21.5 601L0 601Z" fill="#0066FF" stroke-linecap="round" stroke-linejoin="miter"></path></svg>