<svg id="visual" viewBox="0 0 900 600" width="900" height="600" xmlns="http://www.w3.org/2000/svg" xmlns:xlink="http://www.w3.org/1999/xlink" version="1.1">
<path d="M0 467L18.8 473.5C37.7 480 75.3 493 112.8 496.3C150.3 499.7 187.7 493.3 225.2 496.5C262.7 499.7 300.3 512.3 337.8 511C375.3 509.7 412.7 494.3 450.2 491.3C487.7 488.3 525.3 497.7 562.8 493.2C600.3 488.7 637.7 470.3 675.2 472.7C712.7 475 750.3 498 787.8 505.2C825.3 512.3 862.7 503.7 881.3 499.3L900 495L900 601L881.3 601C862.7 601 825.3 601 787.8 601C750.3 601 712.7 601 675.2 601C637.7 601 600.3 601 562.8 601C525.3 601 487.7 601 450.2 601C412.7 601 375.3 601 337.8 601C300.3 601 262.7 601 225.2 601C187.7 601 150.3 601 112.8 601C75.3 601 37.7 601 18.8 601L0 601Z" fill="#30577a"></path>
</svg>