<svg id="visual" viewBox="0 0 900 600" width="900" height="600" xmlns="http://www.w3.org/2000/svg" xmlns:xlink="http://www.w3.org/1999/xlink" version="1.1">
<path d="M0 538L18.8 534C37.7 530 75.3 522 112.8 520.3C150.3 518.7 187.7 523.3 225.2 520.8C262.7 518.3 300.3 508.7 337.8 503.3C375.3 498 412.7 497 450.2 502.5C487.7 508 525.3 520 562.8 521.3C600.3 522.7 637.7 513.3 675.2 512.2C712.7 511 750.3 518 787.8 516.2C825.3 514.3 862.7 503.7 881.3 498.3L900 493L900 601L881.3 601C862.7 601 825.3 601 787.8 601C750.3 601 712.7 601 675.2 601C637.7 601 600.3 601 562.8 601C525.3 601 487.7 601 450.2 601C412.7 601 375.3 601 337.8 601C300.3 601 262.7 601 225.2 601C187.7 601 150.3 601 112.8 601C75.3 601 37.7 601 18.8 601L0 601Z" fill="#30577a"></path>
</svg>