<svg id="visual" viewBox="0 0 900 600" width="900" height="600" xmlns="http://www.w3.org/2000/svg" xmlns:xlink="http://www.w3.org/1999/xlink" version="1.1"><path d="M0 413L21.5 417.5C43 422 86 431 128.8 430C171.7 429 214.3 418 257.2 398.3C300 378.7 343 350.3 385.8 340.8C428.7 331.3 471.3 340.7 514.2 340.3C557 340 600 330 642.8 345.8C685.7 361.7 728.3 403.3 771.2 421C814 438.7 857 432.3 878.5 429.2L900 426L900 601L878.5 601C857 601 814 601 771.2 601C728.3 601 685.7 601 642.8 601C600 601 557 601 514.2 601C471.3 601 428.7 601 385.8 601C343 601 300 601 257.2 601C214.3 601 171.7 601 128.8 601C86 601 43 601 21.5 601L0 601Z" fill="#0066FF" stroke-linecap="round" stroke-linejoin="miter"></path></svg>