<svg id="visual" viewBox="0 0 900 600" width="900" height="600" xmlns="http://www.w3.org/2000/svg" xmlns:xlink="http://www.w3.org/1999/xlink" version="1.1">
<path d="M0 404L18.8 413.8C37.7 423.7 75.3 443.3 112.8 453.3C150.3 463.3 187.7 463.7 225.2 452.3C262.7 441 300.3 418 337.8 412.7C375.3 407.3 412.7 419.7 450.2 429.2C487.7 438.7 525.3 445.3 562.8 458C600.3 470.7 637.7 489.3 675.2 490.7C712.7 492 750.3 476 787.8 457.8C825.3 439.7 862.7 419.3 881.3 409.2L900 399L900 601L881.3 601C862.7 601 825.3 601 787.8 601C750.3 601 712.7 601 675.2 601C637.7 601 600.3 601 562.8 601C525.3 601 487.7 601 450.2 601C412.7 601 375.3 601 337.8 601C300.3 601 262.7 601 225.2 601C187.7 601 150.3 601 112.8 601C75.3 601 37.7 601 18.8 601L0 601Z" fill="#264668"></path>
</svg>