<svg id="visual" viewBox="0 0 900 600" width="900" height="600" xmlns="http://www.w3.org/2000/svg" xmlns:xlink="http://www.w3.org/1999/xlink" version="1.1"><path d="M0 282L21.5 295.5C43 309 86 336 128.8 333C171.7 330 214.3 297 257.2 302.8C300 308.7 343 353.3 385.8 367.8C428.7 382.3 471.3 366.7 514.2 346.8C557 327 600 303 642.8 308C685.7 313 728.3 347 771.2 349.7C814 352.3 857 323.7 878.5 309.3L900 295L900 601L878.5 601C857 601 814 601 771.2 601C728.3 601 685.7 601 642.8 601C600 601 557 601 514.2 601C471.3 601 428.7 601 385.8 601C343 601 300 601 257.2 601C214.3 601 171.7 601 128.8 601C86 601 43 601 21.5 601L0 601Z" fill="#0066FF" stroke-linecap="round" stroke-linejoin="miter"></path></svg>