<svg id="visual" viewBox="0 0 900 600" width="900" height="600" xmlns="http://www.w3.org/2000/svg" xmlns:xlink="http://www.w3.org/1999/xlink" version="1.1">
<path d="M0 481L18.8 478.8C37.7 476.7 75.3 472.3 112.8 472.7C150.3 473 187.7 478 225.2 477C262.7 476 300.3 469 337.8 471.2C375.3 473.3 412.7 484.7 450.2 489.8C487.7 495 525.3 494 562.8 489.2C600.3 484.3 637.7 475.7 675.2 479.2C712.7 482.7 750.3 498.3 787.8 497.8C825.3 497.3 862.7 480.7 881.3 472.3L900 464L900 601L881.3 601C862.7 601 825.3 601 787.8 601C750.3 601 712.7 601 675.2 601C637.7 601 600.3 601 562.8 601C525.3 601 487.7 601 450.2 601C412.7 601 375.3 601 337.8 601C300.3 601 262.7 601 225.2 601C187.7 601 150.3 601 112.8 601C75.3 601 37.7 601 18.8 601L0 601Z" fill="#8bc2cc"></path>
</svg>