<svg id="visual" viewBox="0 0 900 600" width="900" height="600" xmlns="http://www.w3.org/2000/svg" xmlns:xlink="http://www.w3.org/1999/xlink" version="1.1">
<path d="M0 358L18.8 373.5C37.7 389 75.3 420 112.8 426.5C150.3 433 187.7 415 225.2 419C262.7 423 300.3 449 337.8 461.8C375.3 474.7 412.7 474.3 450.2 457.7C487.7 441 525.3 408 562.8 406.2C600.3 404.3 637.7 433.7 675.2 439.5C712.7 445.3 750.3 427.7 787.8 419C825.3 410.3 862.7 410.7 881.3 410.8L900 411L900 601L881.3 601C862.7 601 825.3 601 787.8 601C750.3 601 712.7 601 675.2 601C637.7 601 600.3 601 562.8 601C525.3 601 487.7 601 450.2 601C412.7 601 375.3 601 337.8 601C300.3 601 262.7 601 225.2 601C187.7 601 150.3 601 112.8 601C75.3 601 37.7 601 18.8 601L0 601Z" fill="#1d3557"></path>
</svg>