<svg id="visual" viewBox="0 0 900 600" width="900" height="600" xmlns="http://www.w3.org/2000/svg" xmlns:xlink="http://www.w3.org/1999/xlink" version="1.1">
<path d="M0 485L18.8 483.5C37.7 482 75.3 479 112.8 481.5C150.3 484 187.7 492 225.2 495.5C262.7 499 300.3 498 337.8 497C375.3 496 412.7 495 450.2 491C487.7 487 525.3 480 562.8 480.7C600.3 481.3 637.7 489.7 675.2 486.7C712.7 483.7 750.3 469.3 787.8 464.7C825.3 460 862.7 465 881.3 467.5L900 470L900 601L881.3 601C862.7 601 825.3 601 787.8 601C750.3 601 712.7 601 675.2 601C637.7 601 600.3 601 562.8 601C525.3 601 487.7 601 450.2 601C412.7 601 375.3 601 337.8 601C300.3 601 262.7 601 225.2 601C187.7 601 150.3 601 112.8 601C75.3 601 37.7 601 18.8 601L0 601Z" fill="#457b9d"></path>
</svg>